<svg width="12" height="10" viewBox="0 0 12 10" fill="none" xmlns="http://www.w3.org/2000/svg">
<path d="M9.9375 2.8125V8.9375C9.9375 9.16956 9.84531 9.39212 9.68122 9.55622C9.51712 9.72031 9.29456 9.8125 9.0625 9.8125H1.1875C0.955436 9.8125 0.732876 9.72031 0.568782 9.55622C0.404687 9.39212 0.3125 9.16956 0.3125 8.9375V2.8125C0.3125 2.58044 0.404687 2.35788 0.568782 2.19378C0.732876 2.02969 0.955436 1.9375 1.1875 1.9375H9.0625C9.29456 1.9375 9.51712 2.02969 9.68122 2.19378C9.84531 2.35788 9.9375 2.58044 9.9375 2.8125ZM10.8125 0.1875H2.5C2.38397 0.1875 2.27269 0.233594 2.19064 0.315641C2.10859 0.397688 2.0625 0.508968 2.0625 0.625C2.0625 0.741032 2.10859 0.852312 2.19064 0.934359C2.27269 1.01641 2.38397 1.0625 2.5 1.0625H10.8125V7.625C10.8125 7.74103 10.8586 7.85231 10.9406 7.93436C11.0227 8.01641 11.134 8.0625 11.25 8.0625C11.366 8.0625 11.4773 8.01641 11.5594 7.93436C11.6414 7.85231 11.6875 7.74103 11.6875 7.625V1.0625C11.6875 0.830436 11.5953 0.607876 11.4312 0.443782C11.2671 0.279687 11.0446 0.1875 10.8125 0.1875Z" fill="#555558"/>
</svg>
