<svg width="10" height="14" viewBox="0 0 10 14" fill="none" xmlns="http://www.w3.org/2000/svg">
<path d="M8.59277 0.849609C8.93677 0.849648 9.23227 0.966645 9.46777 1.20215C9.70329 1.43766 9.81974 1.73318 9.81934 2.07715V11.9229C9.81934 12.2667 9.70269 12.5623 9.46777 12.7979C9.23264 13.0335 8.9376 13.1508 8.59277 13.1504H1.41309C1.06912 13.1504 0.773255 13.033 0.538086 12.7979C0.303215 12.5628 0.186107 12.2678 0.185547 11.9238V2.07715C0.185547 1.73308 0.303407 1.43729 0.539062 1.20215C0.774513 0.967394 1.06937 0.850108 1.41309 0.849609H8.59277ZM1.15234 11.9229C1.15234 12.007 1.17781 12.0665 1.22363 12.1123C1.26931 12.158 1.32844 12.1836 1.41309 12.1836H8.48926L6.69043 9.83594C6.60197 9.72059 6.49928 9.63397 6.38281 9.57324C6.26854 9.51388 6.14275 9.48345 6.00293 9.4834H1.15234V11.9229ZM1.41309 1.81641C1.32896 1.81641 1.26946 1.84187 1.22363 1.8877C1.17795 1.93338 1.15238 1.99251 1.15234 2.07715V8.5166H6.00293C6.29641 8.51665 6.56916 8.58051 6.81836 8.70996L6.99707 8.81543C7.16878 8.93069 7.32037 9.07514 7.45215 9.24707L8.85254 11.0645V2.07715C8.8525 1.99251 8.82693 1.93338 8.78125 1.8877C8.73548 1.842 8.67671 1.81644 8.59277 1.81641H1.41309ZM7.00293 5.84961C7.13512 5.84968 7.2533 5.89588 7.34668 5.98926C7.44006 6.08263 7.48625 6.20082 7.48633 6.33301C7.48633 6.46533 7.44013 6.58428 7.34668 6.67773C7.25333 6.771 7.13504 6.81633 7.00293 6.81641H3.00293C2.8709 6.81641 2.75277 6.77062 2.65918 6.67773C2.58856 6.60761 2.54447 6.52344 2.52734 6.42969L2.51953 6.33301C2.52015 6.20124 2.56552 6.0826 2.6582 5.98926C2.75146 5.89545 2.87047 5.84961 3.00293 5.84961H7.00293ZM7.00293 3.18359C7.13504 3.18367 7.25333 3.229 7.34668 3.32227C7.44013 3.41572 7.48633 3.53467 7.48633 3.66699C7.48625 3.79918 7.44006 3.91737 7.34668 4.01074C7.2533 4.10412 7.13512 4.15032 7.00293 4.15039H3.00293C2.87084 4.15039 2.75279 4.1037 2.65918 4.01074C2.565 3.9172 2.51892 3.79885 2.51953 3.66602C2.52015 3.5343 2.56559 3.41656 2.6582 3.32324C2.7515 3.22929 2.87037 3.18359 3.00293 3.18359H7.00293Z" fill="#1C1C1F" stroke="#1C1C1F" stroke-width="0.3"/>
</svg>
