<svg width="16" height="16" viewBox="0 0 16 16" fill="none" xmlns="http://www.w3.org/2000/svg">
<path d="M11.5902 1.84961C11.9342 1.84965 12.2297 1.96665 12.4652 2.20215C12.7007 2.43766 12.8172 2.73318 12.8168 3.07715V12.9229C12.8168 13.2667 12.7001 13.5623 12.4652 13.7979C12.2301 14.0335 11.935 14.1508 11.5902 14.1504H4.41052C4.06655 14.1504 3.77069 14.033 3.53552 13.7979C3.30065 13.5628 3.18354 13.2678 3.18298 12.9238V3.07715C3.18298 2.73308 3.30084 2.43729 3.5365 2.20215C3.77195 1.96739 4.06681 1.85011 4.41052 1.84961H11.5902ZM4.14978 12.9229C4.14978 13.007 4.17524 13.0665 4.22107 13.1123C4.26675 13.158 4.32588 13.1836 4.41052 13.1836H11.4867L9.68787 10.8359C9.59941 10.7206 9.49671 10.634 9.38025 10.5732C9.26598 10.5139 9.14018 10.4834 9.00037 10.4834H4.14978V12.9229ZM4.41052 2.81641C4.3264 2.81641 4.26689 2.84187 4.22107 2.8877C4.17539 2.93338 4.14982 2.99251 4.14978 3.07715V9.5166H9.00037C9.29384 9.51665 9.56659 9.58051 9.8158 9.70996L9.99451 9.81543C10.1662 9.93069 10.3178 10.0751 10.4496 10.2471L11.85 12.0645V3.07715C11.8499 2.99251 11.8244 2.93338 11.7787 2.8877C11.7329 2.842 11.6741 2.81644 11.5902 2.81641H4.41052ZM10.0004 6.84961C10.1326 6.84968 10.2507 6.89588 10.3441 6.98926C10.4375 7.08263 10.4837 7.20082 10.4838 7.33301C10.4838 7.46533 10.4376 7.58428 10.3441 7.67773C10.2508 7.771 10.1325 7.81633 10.0004 7.81641H6.00037C5.86834 7.81641 5.75021 7.77062 5.65662 7.67773C5.586 7.60761 5.54191 7.52344 5.52478 7.42969L5.51697 7.33301C5.51758 7.20124 5.56295 7.0826 5.65564 6.98926C5.7489 6.89545 5.86791 6.84961 6.00037 6.84961H10.0004ZM10.0004 4.18359C10.1325 4.18367 10.2508 4.229 10.3441 4.32227C10.4376 4.41572 10.4838 4.53467 10.4838 4.66699C10.4837 4.79918 10.4375 4.91737 10.3441 5.01074C10.2507 5.10412 10.1326 5.15032 10.0004 5.15039H6.00037C5.86828 5.15039 5.75023 5.1037 5.65662 5.01074C5.56244 4.9172 5.51636 4.79885 5.51697 4.66602C5.51758 4.5343 5.56303 4.41656 5.65564 4.32324C5.74893 4.22929 5.86781 4.18359 6.00037 4.18359H10.0004Z" fill="#64D187" stroke="#64D187" stroke-width="0.3"/>
</svg>
