<svg width="14" height="14" viewBox="0 0 14 14" fill="none" xmlns="http://www.w3.org/2000/svg">
<path d="M13.2026 5.72001C13.0153 5.49511 12.7809 5.31406 12.5159 5.18966C12.251 5.06525 11.962 5.00051 11.6693 5.00001H8.62927L9.0026 4.04668C9.15789 3.62926 9.20961 3.18041 9.15331 2.73862C9.09702 2.29683 8.9344 1.87529 8.67939 1.51016C8.42439 1.14503 8.08462 0.847207 7.68923 0.642238C7.29384 0.437269 6.85463 0.331273 6.40927 0.333343C6.28103 0.33361 6.15559 0.37086 6.04798 0.440625C5.94038 0.51039 5.85518 0.609709 5.8026 0.726676L3.9026 5.00001H2.33594C1.8055 5.00001 1.2968 5.21072 0.921724 5.5858C0.546651 5.96087 0.335938 6.46958 0.335938 7.00001V11.6667C0.335938 12.1971 0.546651 12.7058 0.921724 13.0809C1.2968 13.456 1.8055 13.6667 2.33594 13.6667H10.8226C11.2905 13.6665 11.7435 13.5023 12.1028 13.2027C12.4621 12.903 12.7051 12.4869 12.7893 12.0267L13.6359 7.36001C13.6883 7.0716 13.6766 6.7752 13.6018 6.49179C13.5269 6.20839 13.3906 5.94491 13.2026 5.72001ZM3.66927 12.3333H2.33594C2.15913 12.3333 1.98956 12.2631 1.86453 12.1381C1.73951 12.0131 1.66927 11.8435 1.66927 11.6667V7.00001C1.66927 6.8232 1.73951 6.65363 1.86453 6.5286C1.98956 6.40358 2.15913 6.33334 2.33594 6.33334H3.66927V12.3333ZM12.3359 7.12001L11.4893 11.7867C11.4609 11.942 11.3783 12.0822 11.2562 12.1823C11.1341 12.2824 10.9805 12.3359 10.8226 12.3333H5.0026V5.80668L6.81594 1.72668C7.00259 1.78109 7.17594 1.87361 7.32504 1.9984C7.47414 2.12318 7.59575 2.27752 7.6822 2.45167C7.76865 2.62582 7.81806 2.816 7.82731 3.01021C7.83656 3.20442 7.80545 3.39843 7.73594 3.58001L7.3826 4.53334C7.30731 4.73485 7.2819 4.95157 7.30852 5.16503C7.33514 5.37849 7.41302 5.58233 7.53549 5.75917C7.65797 5.93601 7.82141 6.08059 8.01187 6.18057C8.20234 6.28055 8.41416 6.33297 8.62927 6.33334H11.6693C11.7672 6.33318 11.864 6.35461 11.9527 6.39609C12.0414 6.43757 12.1199 6.49809 12.1826 6.57334C12.2468 6.64756 12.2939 6.73504 12.3204 6.82954C12.3469 6.92404 12.3522 7.02322 12.3359 7.12001Z" fill="#1C1C1F"/>
</svg>
