<svg width="16" height="16" viewBox="0 0 16 16" fill="none" xmlns="http://www.w3.org/2000/svg">
<path d="M14.2 6.71995C14.0127 6.49505 13.7782 6.314 13.5133 6.1896C13.2484 6.06519 12.9593 6.00045 12.6666 5.99995H9.62665L9.99998 5.04662C10.1553 4.6292 10.207 4.18035 10.1507 3.73856C10.0944 3.29677 9.93177 2.87523 9.67677 2.5101C9.42177 2.14497 9.082 1.84715 8.68661 1.64218C8.29121 1.43721 7.852 1.33121 7.40665 1.33328C7.27841 1.33355 7.15296 1.3708 7.04536 1.44056C6.93776 1.51033 6.85256 1.60965 6.79998 1.72661L4.89998 5.99995H3.33331C2.80288 5.99995 2.29417 6.21066 1.9191 6.58573C1.54403 6.96081 1.33331 7.46952 1.33331 7.99995V12.6666C1.33331 13.197 1.54403 13.7058 1.9191 14.0808C2.29417 14.4559 2.80288 14.6666 3.33331 14.6666H11.82C12.2879 14.6665 12.7409 14.5023 13.1002 14.2026C13.4595 13.903 13.7024 13.4868 13.7866 13.0266L14.6333 8.35995C14.6857 8.07153 14.674 7.77514 14.5991 7.49173C14.5242 7.20833 14.388 6.94485 14.2 6.71995ZM4.66665 13.3333H3.33331C3.1565 13.3333 2.98693 13.263 2.86191 13.138C2.73688 13.013 2.66665 12.8434 2.66665 12.6666V7.99995C2.66665 7.82314 2.73688 7.65357 2.86191 7.52854C2.98693 7.40352 3.1565 7.33328 3.33331 7.33328H4.66665V13.3333ZM13.3333 8.11995L12.4866 12.7866C12.4582 12.9419 12.3757 13.0821 12.2536 13.1822C12.1315 13.2823 11.9778 13.3359 11.82 13.3333H5.99998V6.80661L7.81331 2.72662C7.99997 2.78103 8.17332 2.87355 8.32242 2.99834C8.47152 3.12312 8.59313 3.27746 8.67958 3.45161C8.76603 3.62576 8.81543 3.81594 8.82468 4.01015C8.83393 4.20436 8.80282 4.39837 8.73331 4.57995L8.37998 5.53328C8.30469 5.73479 8.27927 5.95151 8.3059 6.16497C8.33252 6.37842 8.41039 6.58227 8.53287 6.75911C8.65534 6.93595 8.81879 7.08053 9.00925 7.18051C9.19971 7.28049 9.41154 7.33291 9.62665 7.33328H12.6666C12.7646 7.33312 12.8614 7.35455 12.9501 7.39603C13.0388 7.43751 13.1173 7.49803 13.18 7.57328C13.2442 7.6475 13.2912 7.73498 13.3177 7.82948C13.3443 7.92397 13.3496 8.02316 13.3333 8.11995Z" fill="#3F8CFE"/>
</svg>
